<?xml version="1.0" encoding="utf-8"?>
<!-- Generator: Adobe Illustrator 23.0.3, SVG Export Plug-In . SVG Version: 6.00 Build 0)  -->
<svg version="1.1" id="Layer_1" xmlns="http://www.w3.org/2000/svg" xmlns:xlink="http://www.w3.org/1999/xlink" x="0px" y="0px"
	 viewBox="0 0 480 480" style="enable-background:new 0 0 480 480;" xml:space="preserve">
<style type="text/css">
	.st0{fill:#00AD5D;}
</style>
<g>
	<path d="M56,480h304c30.9,0,56-25.1,56-56v-8c0-14-1.4-27.9-4.2-41.6c-4.1-20-11.1-39.3-20.8-57.3l-14.1,7.6
		c7.4,13.8,13.1,28.5,17,43.7c-24.8,3-44.8,21.5-49.8,45.9l15.7,3.1c3.7-18.2,19-31.7,37.5-33.3c1.8,10.5,2.6,21.1,2.6,31.7v8
		c0,22.1-17.9,40-40,40h-72.6c-4-27.5-27.5-48-55.4-48v16c19,0,35.4,13.4,39.2,32H208c-22.1,0-40-17.9-40-40s17.9-40,40-40h72.3
		c1,10.1,4.5,19.8,10.1,28.3l13.5-8.6c-9.6-12.8-10.4-30.3-1.9-43.9l-13.2-9.1c-3.6,5.2-6.1,11.1-7.5,17.3h-41.9
		c-4-27.5-27.5-48-55.4-48v16c19,0,35.4,13.4,39.2,32H208c-18.8,0-36.4,9.5-46.7,25.2c-15.8-1.9-30-10.7-38.9-24l-3.8-5.6l-13.3,8.9
		l3.8,5.6c10.5,15.7,26.7,26.5,45.2,30.1c-5.9,19.9-0.3,41.5,14.6,55.9H56c-19.2,0-35.7-13.7-39.2-32.6c13.5-1.4,26.4-6.1,37.6-13.8
		c14.8,14.4,34.6,22.4,55.2,22.3c0.9,0,1.7,0,2.6,0l-0.5-16c-16.6,0.7-32.8-5.3-45-16.7c3.7-3.7,7.1-7.8,10.1-12.2l4.5-6.7L68,379.5
		l-4.5,6.7c-10.8,16.2-28.2,26.9-47.5,29.2c0.1-30.9,7.7-61.4,22.1-88.7c13.5-3.3,27.5,2.2,35.2,13.7l13.3-8.9
		c-8.7-12.9-23-21-38.6-21.7c11.4-17.2,25.5-32.4,41.7-45.1c4.7,22.9,18.6,40.7,36.1,45.7c-3.8,10.1-5.8,20.9-5.8,31.7h16
		c-0.1-19.6,7.7-38.4,21.7-52.3l4.3-4.3l-11.3-11.3l-4.3,4.3c-5.1,5.2-9.6,10.9-13.3,17.1c-14.6-2.1-26.6-19.7-28.7-41.3
		c15.4-10,32.2-17.7,49.9-22.9l-4.5-15.4c-20.7,6-40.3,15.2-58.2,27.3C34.3,282.3,0,346.9,0,416v8C0,454.9,25.1,480,56,480z"/>
	<path d="M160,208h30.5c2,6.1,4.4,12,7.3,17.6l-21.6,21.6c-6.2,6.2-6.2,16.4,0,22.6l33.9,33.9c6.2,6.2,16.4,6.2,22.6,0l21.5-21.6
		c2.1,1.1,4.3,2.1,6.5,3c3.6,1.6,7.4,3,11.2,4.3V320c0,8.8,7.2,16,16,16h48c8.8,0,16-7.2,16-16v-30.5c6.1-2,12-4.4,17.6-7.3
		l21.5,21.6c6.2,6.2,16.4,6.2,22.6,0l33.9-33.9c6.2-6.2,6.2-16.4,0-22.6l-21.6-21.5c2.9-5.7,5.3-11.6,7.3-17.6H464
		c8.8,0,16-7.2,16-16v-48c0-8.8-7.2-16-16-16h-30.5c-2-6.1-4.4-12-7.3-17.6l21.6-21.6c6.2-6.2,6.2-16.4,0-22.6l-33.9-33.9
		c-6.2-6.2-16.4-6.2-22.6,0l-21.5,21.6c-5.7-2.9-11.6-5.3-17.6-7.3V16c0-8.8-7.2-16-16-16h-48c-8.8,0-16,7.2-16,16v30.5
		c-3.8,1.2-7.6,2.7-11.2,4.2c-2.2,0.9-4.3,2-6.5,3l-21.5-21.6c-6.2-6.2-16.4-6.2-22.6,0l-33.9,33.9c-6.2,6.2-6.2,16.4,0,22.6
		l21.6,21.5c-1.1,2.1-2.1,4.3-3,6.5c-1.6,3.6-3,7.4-4.3,11.2H160c-8.8,0-16,7.2-16,16v48C144,200.8,151.2,208,160,208z M160,144
		h36.4c3.6,0,6.8-2.4,7.7-5.9c1.4-5.1,3.2-10.1,5.3-14.9c1.5-3.5,3.3-7,5.2-10.4c1.8-3.1,1.2-7.1-1.3-9.6l-25.7-25.8l33.9-33.9
		l25.7,25.8c2.5,2.5,6.5,3.1,9.6,1.3c3.4-1.9,6.8-3.6,10.4-5.2c4.8-2.1,9.8-3.9,14.9-5.3c3.5-1,5.9-4.1,5.9-7.7V16h48v36.4
		c0,3.6,2.4,6.8,5.9,7.7c8.8,2.4,17.3,5.9,25.3,10.4c3.1,1.8,7.1,1.2,9.6-1.3l25.8-25.8l33.9,34l-25.8,25.7
		c-2.5,2.5-3.1,6.5-1.3,9.6c4.5,8,8,16.5,10.4,25.3c1,3.5,4.1,5.9,7.7,5.9H464v48h-36.4c-3.6,0-6.8,2.4-7.7,5.9
		c-2.4,8.8-5.9,17.3-10.4,25.3c-1.8,3.1-1.2,7.1,1.3,9.6l25.8,25.8l-34,33.9l-25.7-25.7c-2.5-2.5-6.5-3.1-9.6-1.3
		c-8,4.5-16.5,8-25.3,10.4c-3.5,1-5.9,4.1-5.9,7.7V320h-48v-36.4c0-3.6-2.4-6.8-5.9-7.7c-5.1-1.4-10.1-3.2-14.9-5.3
		c-3.5-1.5-7-3.3-10.4-5.2c-1.2-0.7-2.6-1-3.9-1c-2.1,0-4.2,0.8-5.7,2.3l-25.8,25.7l-33.9-33.9l25.7-25.7c2.5-2.5,3.1-6.5,1.3-9.6
		c-4.5-8-8-16.5-10.4-25.3c-0.9-3.5-4.1-5.9-7.8-5.9H160V144z"/>
	<path class="st0" d="M312,256c48.6,0,88-39.4,88-88s-39.4-88-88-88s-88,39.4-88,88C224.1,216.6,263.4,255.9,312,256z M312,96
		c39.8,0,72,32.2,72,72s-32.2,72-72,72s-72-32.2-72-72C240,128.3,272.3,96,312,96z"/>
	<path class="st0" d="M312,208c22.1,0,40-17.9,40-40s-17.9-40-40-40s-40,17.9-40,40C272,190.1,289.9,208,312,208z M312,144
		c13.3,0,24,10.7,24,24s-10.7,24-24,24s-24-10.7-24-24S298.7,144,312,144z"/>
</g>
</svg>
