<?xml version="1.0" encoding="utf-8"?>
<!-- Generator: Adobe Illustrator 23.0.3, SVG Export Plug-In . SVG Version: 6.00 Build 0)  -->
<svg version="1.1" id="Layer_1" xmlns="http://www.w3.org/2000/svg" xmlns:xlink="http://www.w3.org/1999/xlink" x="0px" y="0px"
	 viewBox="0 0 480 480" style="enable-background:new 0 0 480 480;" xml:space="preserve">
<style type="text/css">
	.st0{fill:#00AD5D;}
</style>
<g>
	<path d="M72,16h264v224h16V80h56v160h16V72c0-4.4-3.6-8-8-8h-64V8c0-4.4-3.6-8-8-8H64c-4.4,0-8,3.6-8,8v72h16V16z"/>
	<path d="M344,416c4.4,0,8-3.6,8-8v-24h-16v16H72v-16H56v24c0,4.4,3.6,8,8,8h64v56c0,4.4,3.6,8,8,8h280c4.4,0,8-3.6,8-8v-88h-16v80
		H144v-48H344z"/>
	<path class="st0" d="M8,240h240c4.4,0,8-3.6,8-8V104c0-4.4-3.6-8-8-8H8c-4.4,0-8,3.6-8,8v128C0,236.4,3.6,240,8,240z M16,112h224
		v17.9l-112,29.9L16,129.9V112z M16,146.4l109.9,29.3c1.4,0.4,2.8,0.4,4.1,0L240,146.4V224H16V146.4z"/>
	<path class="st0" d="M8,368h160c4.4,0,8-3.6,8-8v-96c0-4.4-3.6-8-8-8H8c-4.4,0-8,3.6-8,8v96C0,364.4,3.6,368,8,368z M16,272h144v80
		H16V272z"/>
	<path d="M288,88c0.9,0,1.7-0.1,2.5-0.4l24-8c3.3-1.1,5.5-4.1,5.5-7.6V48c0-3.4-2.2-6.5-5.5-7.6l-24-8c-1.6-0.5-3.4-0.5-5.1,0l-24,8
		c-3.3,1.1-5.5,4.1-5.5,7.6v24c0,3.4,2.2,6.5,5.5,7.6l24,8C286.3,87.9,287.1,88,288,88z M272,53.8l16-5.3l16,5.3v12.5l-16,5.3
		l-16-5.3V53.8z"/>
	<path class="st0" d="M139.6,296.8l-16-8c-2.2-1.1-4.9-1.1-7.1,0l-16,8c-2.7,1.4-4.4,4.2-4.4,7.2v16c0,3,1.7,5.8,4.4,7.2l16,8
		c2.2,1.1,4.9,1.1,7.1,0l16-8c2.7-1.4,4.4-4.2,4.4-7.2v-16C144,301,142.3,298.2,139.6,296.8z M128,315.1l-8,4l-8-4v-6.1l8-4l8,4
		V315.1z"/>
	<path class="st0" d="M32,288h48v16H32V288z"/>
	<path class="st0" d="M32,320h48v16H32V320z"/>
	<path class="st0" d="M456,320H296c-2.1,0-4.2,0.8-5.7,2.3l-16,16c-3.1,3.1-3.1,8.2,0,11.3l16,16c1.5,1.5,3.5,2.3,5.7,2.3h160
		c13.3,0,24-10.7,24-24S469.3,320,456,320z M432,352H299.3l-8-8l8-8H432V352z M456,352h-8v-16h8c4.4,0,8,3.6,8,8S460.4,352,456,352z
		"/>
	<path class="st0" d="M456,256H296c-2.1,0-4.2,0.8-5.7,2.3l-16,16c-3.1,3.1-3.1,8.2,0,11.3l16,16c1.5,1.5,3.5,2.3,5.7,2.3h160
		c13.3,0,24-10.7,24-24S469.3,256,456,256z M432,288H299.3l-8-8l8-8H432V288z M456,288h-8v-16h8c4.4,0,8,3.6,8,8S460.4,288,456,288z
		"/>
	<path class="st0" d="M32,184h24v16H32V184z"/>
</g>
<g>
	<path d="M71,15h264v224h16V79h56v160h16V71c0-4.4-3.6-8-8-8h-64V7c0-4.4-3.6-8-8-8H63c-4.4,0-8,3.6-8,8v72h16V15z"/>
	<path d="M343,415c4.4,0,8-3.6,8-8v-24h-16v16H71v-16H55v24c0,4.4,3.6,8,8,8h64v56c0,4.4,3.6,8,8,8h280c4.4,0,8-3.6,8-8v-88h-16v80
		H143v-48H343z"/>
	<path class="st0" d="M7,239h240c4.4,0,8-3.6,8-8V103c0-4.4-3.6-8-8-8H7c-4.4,0-8,3.6-8,8v128C-1,235.4,2.6,239,7,239z M15,111h224
		v17.9l-112,29.9L15,128.9V111z M15,145.4l109.9,29.3c1.4,0.4,2.8,0.4,4.1,0L239,145.4V223H15V145.4z"/>
	<path class="st0" d="M7,367h160c4.4,0,8-3.6,8-8v-96c0-4.4-3.6-8-8-8H7c-4.4,0-8,3.6-8,8v96C-1,363.4,2.6,367,7,367z M15,271h144
		v80H15V271z"/>
	<path d="M287,87c0.9,0,1.7-0.1,2.5-0.4l24-8c3.3-1.1,5.5-4.1,5.5-7.6V47c0-3.4-2.2-6.5-5.5-7.6l-24-8c-1.6-0.5-3.4-0.5-5.1,0l-24,8
		c-3.3,1.1-5.5,4.1-5.5,7.6v24c0,3.4,2.2,6.5,5.5,7.6l24,8C285.3,86.9,286.1,87,287,87z M271,52.8l16-5.3l16,5.3v12.5l-16,5.3
		l-16-5.3V52.8z"/>
	<path class="st0" d="M138.6,295.8l-16-8c-2.2-1.1-4.9-1.1-7.1,0l-16,8c-2.7,1.4-4.4,4.2-4.4,7.2v16c0,3,1.7,5.8,4.4,7.2l16,8
		c2.2,1.1,4.9,1.1,7.1,0l16-8c2.7-1.4,4.4-4.2,4.4-7.2v-16C143,300,141.3,297.2,138.6,295.8z M127,314.1l-8,4l-8-4v-6.1l8-4l8,4
		V314.1z"/>
	<path class="st0" d="M31,287h48v16H31V287z"/>
	<path class="st0" d="M31,319h48v16H31V319z"/>
	<path class="st0" d="M455,319H295c-2.1,0-4.2,0.8-5.7,2.3l-16,16c-3.1,3.1-3.1,8.2,0,11.3l16,16c1.5,1.5,3.5,2.3,5.7,2.3h160
		c13.3,0,24-10.7,24-24S468.3,319,455,319z M431,351H298.3l-8-8l8-8H431V351z M455,351h-8v-16h8c4.4,0,8,3.6,8,8S459.4,351,455,351z
		"/>
	<path class="st0" d="M455,255H295c-2.1,0-4.2,0.8-5.7,2.3l-16,16c-3.1,3.1-3.1,8.2,0,11.3l16,16c1.5,1.5,3.5,2.3,5.7,2.3h160
		c13.3,0,24-10.7,24-24S468.3,255,455,255z M431,287H298.3l-8-8l8-8H431V287z M455,287h-8v-16h8c4.4,0,8,3.6,8,8S459.4,287,455,287z
		"/>
	<path class="st0" d="M31,183h24v16H31V183z"/>
</g>
</svg>
