<?xml version="1.0" encoding="utf-8"?>
<!-- Generator: Adobe Illustrator 23.0.3, SVG Export Plug-In . SVG Version: 6.00 Build 0)  -->
<svg version="1.1" id="Layer_1" xmlns="http://www.w3.org/2000/svg" xmlns:xlink="http://www.w3.org/1999/xlink" x="0px" y="0px"
	 viewBox="0 0 512 512" style="enable-background:new 0 0 512 512;" xml:space="preserve">
<style type="text/css">
	.st0{fill:#FFFFFF;}
	.st1{fill:#00AD5D;}
</style>
<g id="surface1">
	<path class="st0" d="M404.3,0H108.4C96.1,0,86,10.1,86,22.4v467.1c0,12.4,10.1,22.4,22.4,22.4h295.9c12.4,0,22.4-10.1,22.4-22.4
		V22.4C426.7,10.1,416.7,0,404.3,0z M314.3,30v17.5H198.4V30H314.3z M396.7,482H116V30h52.4v29.3c0,10,8.2,18.2,18.2,18.2h139.5
		c10,0,18.2-8.2,18.2-18.2V30h52.4L396.7,482L396.7,482z"/>
	<path class="st1" d="M291.2,423.5h-69.7c-8.3,0-15,6.7-15,15s6.7,15,15,15h69.7c8.3,0,15-6.7,15-15S299.5,423.5,291.2,423.5z"/>
	<path class="st1" d="M318.2,177.7c-19.3-1.1-34.2-7.3-46.8-19.6l-0.3-0.3c-8.3-7.6-20.9-7.6-29.2,0l-0.3,0.3
		c-12.6,12.3-27.5,18.6-46.8,19.6c-15.4,0.9-27.6,13.6-27.8,28.9c0,2-0.1,3.9-0.2,5.6l0,0.6c-0.4,23-1,51.5,8.9,78.2
		c11.8,32.1,36.5,54.8,73.3,67.7c1,0.4,2,0.6,3.1,0.8l0.3,0.1c1.4,0.3,2.8,0.4,4.2,0.4c1.5,0,3-0.1,4.5-0.4c1-0.2,2.1-0.5,3.1-0.8
		c36.8-12.9,61.4-35.6,73.2-67.7c9.9-26.8,9.3-55.4,8.9-78.4l0-0.4c-0.1-1.7-0.1-3.6-0.2-5.6C345.7,191.2,333.5,178.5,318.2,177.7z
		 M256.4,329.5c-61.5-22.7-60.6-72.3-59.7-116.2c0.1-1.8,0.1-3.7,0.2-5.7c23.5-1.4,43-8.8,59.6-22.7c16.5,13.8,36.1,21.2,59.6,22.7
		c0,2,0.1,3.9,0.2,5.7C316.9,257.2,317.8,306.8,256.4,329.5z"/>
</g>
</svg>
