<?xml version="1.0" encoding="utf-8"?>
<!-- Generator: Adobe Illustrator 23.0.3, SVG Export Plug-In . SVG Version: 6.00 Build 0)  -->
<svg version="1.1" id="Layer_1" xmlns="http://www.w3.org/2000/svg" xmlns:xlink="http://www.w3.org/1999/xlink" x="0px" y="0px"
	 viewBox="0 0 511 511" style="enable-background:new 0 0 511 511;" xml:space="preserve">
<style type="text/css">
	.st0{fill:#FFFFFF;}
	.st1{fill:#00AD5D;}
</style>
<g id="surface1">
	<path class="st0" d="M473.6,137.6l0-0.4c-0.2-4.9-0.4-10.1-0.5-15.9c-0.4-28.2-22.8-51.5-51-53.1C363.3,65,317.9,45.9,279.1,8
		l-0.3-0.3c-12.7-11.6-31.8-11.6-44.4,0L233.9,8c-38.8,37.8-84.3,57-143,60.3c-28.2,1.6-50.6,24.9-51,53.1c-0.1,5.8-0.2,11-0.5,15.9
		l0,0.9c-1.1,59.9-2.6,134.5,22.4,202.2c13.7,37.2,34.5,69.6,61.7,96.2c31,30.3,71.7,54.3,120.8,71.5c1.6,0.5,3.2,1,4.9,1.3l0.1,0
		c2.4,0.5,4.8,0.7,7.2,0.7c2.4,0,4.8-0.2,7.2-0.7c1.7-0.3,3.4-0.8,5-1.4c49.1-17.2,89.7-41.2,120.7-71.5c27.2-26.6,48-59,61.7-96.2
		C476.1,272.4,474.7,197.7,473.6,137.6z M422.9,329.9c-26.3,71.3-80,120.3-164.2,149.8c-0.3,0.1-0.6,0.2-1,0.3
		c-0.9,0.2-1.7,0.2-2.6,0l0,0c-0.3-0.1-0.7-0.2-0.9-0.3C170,450.2,116.2,401.3,90,330c-23-62.4-21.7-130.8-20.5-191.2l0-0.3
		c0.2-5.2,0.4-10.6,0.5-16.6c0.2-12.5,10.2-22.9,22.7-23.6c33.3-1.9,62.5-8.3,89.3-19.6c26.8-11.3,50.6-27.3,72.8-48.9
		c1.1-1,2.6-1,3.7,0c22.2,21.6,46,37.5,72.8,48.9c26.8,11.4,56,17.8,89.3,19.6c12.5,0.7,22.5,11,22.7,23.6c0.1,6,0.2,11.4,0.5,16.6
		C444.7,198.9,446,267.4,422.9,329.9z"/>
	<path class="st1" d="M318.4,262.7c0.1-0.2,0.3-0.4,0.4-0.6c0.1-0.2,0.2-0.4,0.4-0.6c0.1-0.2,0.2-0.4,0.3-0.7
		c0.1-0.2,0.2-0.4,0.3-0.6c0.1-0.2,0.2-0.4,0.2-0.7c0.1-0.2,0.2-0.5,0.2-0.7c0.1-0.2,0.1-0.4,0.2-0.7c0.1-0.2,0.1-0.5,0.2-0.7
		c0.1-0.3,0.1-0.5,0.1-0.8c0-0.2,0.1-0.4,0.1-0.7c0-0.5,0.1-1,0.1-1.5v0c0,0,0,0,0,0c0-0.5,0-1-0.1-1.5c0-0.2-0.1-0.4-0.1-0.7
		c0-0.3-0.1-0.5-0.1-0.8c0-0.2-0.1-0.5-0.2-0.7c-0.1-0.2-0.1-0.5-0.2-0.7c-0.1-0.2-0.2-0.5-0.2-0.7c-0.1-0.2-0.2-0.4-0.2-0.7
		c-0.1-0.2-0.2-0.4-0.3-0.6c-0.1-0.2-0.2-0.5-0.3-0.7c-0.1-0.2-0.2-0.4-0.4-0.6c-0.1-0.2-0.3-0.4-0.4-0.6c-0.1-0.2-0.3-0.4-0.5-0.6
		c-0.1-0.2-0.3-0.4-0.4-0.5c-0.6-0.8-1.3-1.4-2.1-2.1c-0.2-0.1-0.4-0.3-0.5-0.4c-0.2-0.2-0.4-0.3-0.6-0.5c-0.2-0.1-0.4-0.3-0.6-0.4
		c-0.2-0.1-0.4-0.2-0.6-0.4c-0.2-0.1-0.4-0.2-0.7-0.3c-0.2-0.1-0.4-0.2-0.6-0.3c-0.2-0.1-0.4-0.2-0.7-0.2c-0.2-0.1-0.5-0.2-0.7-0.2
		c-0.2-0.1-0.4-0.1-0.7-0.2c-0.2-0.1-0.5-0.1-0.7-0.2c-0.3-0.1-0.5-0.1-0.8-0.1c-0.2,0-0.4-0.1-0.7-0.1c-0.5,0-1-0.1-1.5-0.1h-63.5
		l44.9-44.9c5.8-5.8,5.8-15.2,0-20.9c-5.8-5.8-15.2-5.8-20.9,0L196.4,244c-0.1,0.1-0.1,0.2-0.2,0.2c-0.3,0.3-0.5,0.6-0.8,0.9
		c-0.2,0.2-0.3,0.4-0.5,0.6c-0.1,0.2-0.3,0.4-0.4,0.6c-0.2,0.2-0.3,0.5-0.4,0.7c-0.1,0.2-0.2,0.4-0.3,0.5c-0.1,0.2-0.2,0.5-0.3,0.7
		c-0.1,0.2-0.2,0.4-0.3,0.6c-0.1,0.2-0.2,0.5-0.3,0.7c-0.1,0.2-0.2,0.4-0.2,0.7c-0.1,0.2-0.1,0.5-0.2,0.7c-0.1,0.2-0.1,0.5-0.2,0.7
		c-0.1,0.3-0.1,0.5-0.1,0.8c0,0.2-0.1,0.4-0.1,0.6c0,0.5-0.1,1-0.1,1.5c0,0,0,0,0,0v0c0,0,0,0,0,0c0,0.5,0,1,0.1,1.4
		c0,0.2,0.1,0.4,0.1,0.7c0,0.3,0.1,0.5,0.1,0.8c0.1,0.3,0.1,0.5,0.2,0.8c0.1,0.2,0.1,0.4,0.2,0.6c0.1,0.2,0.2,0.5,0.3,0.7
		c0.1,0.2,0.1,0.4,0.2,0.6c0.1,0.2,0.2,0.5,0.3,0.7c0.1,0.2,0.2,0.4,0.3,0.6c0.1,0.2,0.3,0.4,0.4,0.6c0.1,0.2,0.2,0.4,0.4,0.6
		c0.2,0.2,0.3,0.5,0.5,0.7c0.1,0.1,0.2,0.3,0.3,0.5c0.6,0.8,1.3,1.5,2.1,2.1c0.1,0.1,0.3,0.2,0.4,0.3c0.2,0.2,0.5,0.4,0.7,0.5
		c0.2,0.1,0.4,0.2,0.6,0.3c0.2,0.1,0.4,0.3,0.7,0.4c0.2,0.1,0.4,0.2,0.6,0.3c0.2,0.1,0.5,0.2,0.7,0.3c0.2,0.1,0.4,0.1,0.6,0.2
		c0.3,0.1,0.5,0.2,0.8,0.3c0.2,0.1,0.4,0.1,0.6,0.1c0.3,0.1,0.6,0.1,0.8,0.2c0.2,0,0.4,0.1,0.6,0.1c0.3,0,0.5,0.1,0.8,0.1
		c0.3,0,0.7,0,1,0.1c0.1,0,0.3,0,0.4,0h63.5l-44.9,44.9c-5.8,5.8-5.8,15.2,0,20.9s15.2,5.8,20.9,0l70.2-70.2c0.3-0.3,0.7-0.7,1-1.1
		c0.1-0.2,0.3-0.4,0.4-0.5C318.1,263.1,318.3,262.9,318.4,262.7z"/>
	<path class="st1" d="M325.8,364.5L309,347.7c-5.7-5.7-5.7-14.9,0-20.6v0c5.7-5.7,14.9-5.7,20.6,0l16.8,16.8
		c5.7,5.7,5.7,14.9,0,20.6v0C340.7,370.1,331.5,370.1,325.8,364.5z"/>
	<path class="st1" d="M166.7,205.4l-16.8-16.8c-5.7-5.7-5.7-14.9,0-20.6l0,0c5.7-5.7,14.9-5.7,20.6,0l16.8,16.8
		c5.7,5.7,5.7,14.9,0,20.6l0,0C181.6,211.1,172.4,211.1,166.7,205.4z"/>
</g>
</svg>
