<?xml version="1.0" encoding="utf-8"?>
<!-- Generator: Adobe Illustrator 23.0.3, SVG Export Plug-In . SVG Version: 6.00 Build 0)  -->
<svg version="1.1" id="Layer_1" xmlns="http://www.w3.org/2000/svg" xmlns:xlink="http://www.w3.org/1999/xlink" x="0px" y="0px"
	 viewBox="0 0 512 512" style="enable-background:new 0 0 512 512;" xml:space="preserve">
<style type="text/css">
	.st0{fill:#FFFFFF;}
	.st1{fill:#00AD5D;}
</style>
<g id="surface1">
	<path class="st0" d="M404.3,0H108.4C96.1,0,86,10.1,86,22.4v467.1c0,12.4,10.1,22.4,22.4,22.4h295.9c12.4,0,22.4-10.1,22.4-22.4
		V22.4C426.7,10.1,416.7,0,404.3,0z M314.3,30v17.5H198.5V30H314.3z M396.7,482H116V30h52.4v29.3c0,10,8.2,18.2,18.2,18.2h139.5
		c10,0,18.2-8.2,18.2-18.2V30h52.3L396.7,482L396.7,482z"/>
	<path class="st1" d="M276.9,236.9c-4.5,5.7-13.4,10.2-23.9,12l-0.2,0c-20,3.8-32.9,18.6-32.9,37.8c0,21.4,17.1,38.1,38.9,38.1
		c28,0,50.8-22.4,50.8-50c0-11.4-1.6-22.4-4.8-32.8c-1.8-5.7-6.5-9.9-12.4-11C286.5,230,280.6,232.2,276.9,236.9z M258.8,294.9
		c-5.1,0-8.9-3.5-8.9-8.1c0-1.7,0-6.7,8.4-8.3c7.6-1.4,14.8-3.7,21.2-6.8c0,1.1,0.1,2.1,0.1,3.1
		C279.6,285.9,270.3,294.9,258.8,294.9z"/>
	<path class="st1" d="M285.8,124.2c-5.4-4.4-13-5-18.9-1.3s-9,10.6-7.5,17.5c1.6,7.7,5.5,27.2,5.5,43.1c0,7.4-2.6,14.2-7.2,18.7
		c-3.8,3.7-8.6,5.5-14.1,5.3c-12.2-0.4-22.2-10.9-22.2-23.4c0-7-4.4-13.2-11.1-15.5c-6.6-2.3-13.9-0.1-18.3,5.4
		c-22.3,28.6-34.1,62.7-34.1,98.7c0,26.1,10.3,50.8,29.1,69.5c18.7,18.7,43.4,29.1,69.5,29.1s50.8-10.3,69.5-29.1
		c18.7-18.7,29.1-43.4,29.1-69.5C355,214.4,329.8,160.3,285.8,124.2z M304.7,320.9c-13.1,13.1-30.2,20.3-48.3,20.3
		c-18.1,0-35.2-7.2-48.3-20.3c-13.1-13.1-20.3-30.2-20.3-48.3c0-20.2,4.6-39.6,13.4-57.4c1.5,2.1,3.1,4,4.8,5.9
		c9.6,10.1,22.6,15.9,36.5,16.4c13.6,0.4,26.3-4.5,35.9-13.8c10.4-10.1,16.3-24.7,16.3-40.2c0-2-0.1-4.1-0.1-6.2
		c19.6,27.2,30.3,60.4,30.3,95.4C325,290.7,317.8,307.8,304.7,320.9z"/>
	<path class="st1" d="M291.2,423.5h-69.7c-8.3,0-15,6.7-15,15s6.7,15,15,15h69.7c8.3,0,15-6.7,15-15S299.5,423.5,291.2,423.5z"/>
</g>
</svg>
