<?xml version="1.0" encoding="utf-8"?>
<!-- Generator: Adobe Illustrator 23.0.3, SVG Export Plug-In . SVG Version: 6.00 Build 0)  -->
<svg version="1.1" id="Layer_1" xmlns="http://www.w3.org/2000/svg" xmlns:xlink="http://www.w3.org/1999/xlink" x="0px" y="0px"
	 viewBox="0 0 480 480" style="enable-background:new 0 0 480 480;" xml:space="preserve">
<style type="text/css">
	.st0{fill:#00AD5D;}
</style>
<g>
	<path d="M232,368h16v16h-16V368z"/>
	<path d="M200,368h16v16h-16V368z"/>
	<path d="M168,368h16v16h-16V368z"/>
	<path d="M296,368h16v16h-16V368z"/>
	<path d="M264,368h16v16h-16V368z"/>
	<path d="M232,400h16v16h-16V400z"/>
	<path d="M200,400h16v16h-16V400z"/>
	<path d="M264,400h16v16h-16V400z"/>
	<path d="M200,432h80v16h-80V432z"/>
	<path d="M16,392c0-4.4,3.6-8,8-8c2.2,0,4.2,0.9,5.7,2.4c1.5,1.5,2.3,3.5,2.3,5.6v32h16v-32c0-4.4,3.6-8,8-8c2.2,0,4.2,0.9,5.7,2.4
		c1.5,1.5,2.3,3.5,2.3,5.6v32h16v-32c0-4.4,3.6-8,8-8c2.2,0,4.2,0.9,5.7,2.4c1.5,1.5,2.3,3.5,2.3,5.6v32h16v-32c0-4.4,3.6-8,8-8
		c2.2,0,4.2,0.9,5.7,2.4c1.5,1.5,2.3,3.5,2.3,5.6v48c0,2.9,1.6,5.5,4.1,7c2.5,1.4,5.6,1.4,8.1-0.1l27.9-16.7c3.1-1.9,7.2-1,9.2,2
		c0.7,1.1,1.1,2.4,1.1,3.7c0,2.3-1.2,4.4-3.1,5.7l-35.7,23.8c-2.9,2-4.2,5.6-3.2,9s4.1,5.7,7.7,5.7h192c3.5,0,6.6-2.3,7.7-5.7
		s-0.3-7-3.2-9l-35.8-23.9c-3.1-2.1-3.9-6.2-1.9-9.3c2-3,6.1-3.9,9.2-2l27.9,16.7c2.5,1.5,5.5,1.5,8,0.1s4.1-4.1,4.1-6.9v-48
		c0-2.2,0.9-4.2,2.4-5.7c1.5-1.5,3.5-2.3,5.6-2.3c4.4,0,8,3.6,8,8v32h16v-32c0-2.2,0.9-4.2,2.4-5.7c1.5-1.5,3.5-2.3,5.6-2.3
		c4.4,0,8,3.6,8,8v32h16v-32c0-2.2,0.9-4.2,2.4-5.7c1.5-1.5,3.5-2.3,5.6-2.3c4.4,0,8,3.6,8,8v32h16v-32c0-2.2,0.9-4.2,2.4-5.7
		c1.5-1.5,3.5-2.3,5.6-2.3c4.4,0,8,3.6,8,8v88h16v-88c0-13.3-10.7-24-24-24c-5.9,0-11.7,2.2-16,6.3c-4.4-4-10.1-6.2-16-6.3
		c-5.9,0-11.7,2.2-16,6.3c-4.4-4-10.1-6.2-16-6.3c-2.7,0-5.4,0.5-8,1.4V344c0-4.4-3.6-8-8-8H28c-6.6,0-12-5.4-12-12s5.4-12,12-12h80
		c15.5,0,28-12.5,28-28v-12h60.9l-10.7,32H168v16h144v-16h-18.2l-10.7-32H400c17.7,0,32-14.3,32-32V32c0-17.7-14.3-32-32-32H80
		C62.3,0,48,14.3,48,32v208c0,17.7,14.3,32,32,32h40v12c0,6.6-5.4,12-12,12H28c-15.5,0-28,12.5-28,28s12.5,28,28,28h68v17.4
		c-8.3-3-17.5-1.1-24,4.9c-4.4-4-10.1-6.3-16-6.3c-5.9,0-11.6,2.3-16,6.3c-4.4-4-10.1-6.3-16-6.3c-13.3,0-24,10.7-24,24v88h16V392z
		 M112,352h256v17.4c-2.6-0.9-5.3-1.4-8-1.4c-5.9,0-11.7,2.2-16,6.3V368h-16v16h9.5c-0.9,2.6-1.4,5.3-1.5,8v8h-8v16h8v9.9l-15.8-9.4
		c-2.5-1.5-5.3-2.5-8.2-3V400h-16v16h1.6c-7,3.8-11.5,11-11.9,18.9s3.5,15.5,10.2,19.9l13.7,9.2H170.4l13.6-9.1
		c6.7-4.3,10.7-11.9,10.4-19.9s-4.9-15.2-12-19h1.6v-16h-16v13.4c-2.9,0.5-5.7,1.5-8.2,3l-15.8,9.5V416h8v-16h-8v-8
		c0-2.7-0.5-5.4-1.4-8h9.4v-16h-16v6.3c-6.4-6-15.7-7.9-24-4.9V352z M203.1,304l10.7-32h52.5l10.7,32H203.1z M80,256
		c-8.8,0-16-7.2-16-16V32c0-8.8,7.2-16,16-16h320c8.8,0,16,7.2,16,16v208c0,8.8-7.2,16-16,16H80z"/>
	<path class="st0" d="M245.3,85.8l14.8-5.8l5.8,14.9l-14.8,5.8L245.3,85.8z"/>
	<path class="st0" d="M165,117.8l62-24.8l5.9,14.9l-62,24.8L165,117.8z"/>
	<path class="st0" d="M215.3,227.3l12.2-27l65.8,23.2c2.4,0.9,5.2,0.5,7.3-1c2.1-1.5,3.4-3.9,3.4-6.5V40c0-2.7-1.3-5.2-3.5-6.6
		c-2.2-1.5-5-1.8-7.5-0.8l-165.8,67.8l-37.6-7.6c-2.4-0.5-4.8,0.1-6.7,1.6c-1.9,1.5-2.9,3.8-2.9,6.2v64c0,2.4,1.1,4.7,2.9,6.2
		c1.9,1.5,4.3,2.1,6.7,1.6l37.8-7.6l13.4,4.7l-10.7,22.9c-0.9,2-1,4.3-0.2,6.4c0.8,2.1,2.4,3.7,4.5,4.5l70.7,28
		c0.9,0.4,1.9,0.6,2.9,0.6C211.1,232,214,230.2,215.3,227.3z M130.7,149.1c-1.4-0.5-2.8-0.6-4.3-0.3L96,154.9v-44.5l30.4,6.1
		c1.5,0.3,3.1,0.2,4.6-0.4l157-64.1v152.8L130.7,149.1z M203.9,213.8l-55.7-22.1L156,175l56.4,19.9L203.9,213.8z"/>
	<path class="st0" d="M336,128h56v16h-56V128z"/>
	<path class="st0" d="M331.6,81.3l48-32l8.9,13.3l-48,32L331.6,81.3z"/>
	<path class="st0" d="M331.6,190.6l8.9-13.3l48,32l-8.9,13.3L331.6,190.6z"/>
	<path d="M80,32h16v16H80V32z"/>
	<path d="M112,32h16v16h-16V32z"/>
	<path d="M144,32h16v16h-16V32z"/>
</g>
</svg>
