<?xml version="1.0" encoding="utf-8"?>
<!-- Generator: Adobe Illustrator 23.0.3, SVG Export Plug-In . SVG Version: 6.00 Build 0)  -->
<svg version="1.1" id="Layer_1" xmlns="http://www.w3.org/2000/svg" xmlns:xlink="http://www.w3.org/1999/xlink" x="0px" y="0px"
	 viewBox="0 0 512 512" style="enable-background:new 0 0 512 512;" xml:space="preserve">
<style type="text/css">
	.st0{fill:#FFFFFF;}
	.st1{fill:#00AD5D;}
</style>
<g>
	<g>
		<g>
			<path class="st0" d="M501,110.7H11c-6.1,0-11,4.9-11,11v268.7c0,6.1,4.9,11,11,11h490c6.1,0,11-4.9,11-11V121.7
				C512,115.6,507.1,110.7,501,110.7z M22,132.7h55.9c-4.7,28.6-27.3,51.2-55.9,55.9C22,188.5,22,132.7,22,132.7z M22,379.3v-55.9
				c28.6,4.7,51.2,27.3,55.9,55.9H22z M490,379.3h-55.9c4.7-28.6,27.3-51.2,55.9-55.9V379.3z M490,301.2
				c-40.7,5-73.1,37.4-78.1,78.1H100.1c-5-40.7-37.4-73.1-78.1-78.1v-90.5c40.7-5,73.1-37.4,78.1-78.1h311.8
				c5,40.7,37.4,73.1,78.1,78.1L490,301.2L490,301.2z M490,188.5c-28.6-4.7-51.2-27.3-55.9-55.9H490V188.5z"/>
		</g>
	</g>
	<g>
		<g>
			<path class="st1" d="M397.2,208.6c-12.1,0-22-9.9-22-22c0-5.5-4.4-9.9-9.9-9.9H146.7c-5.5,0-9.9,4.4-9.9,9.9c0,12.1-9.9,22-22,22
				c-5.5,0-9.9,4.4-9.9,9.9v75c0,5.5,4.4,9.9,9.9,9.9c12.1,0,22,9.9,22,22c0,5.5,4.4,9.9,9.9,9.9h218.6c5.5,0,9.9-4.4,9.9-9.9
				c0-12.1,9.9-22,22-22c5.5,0,9.9-4.4,9.9-9.9v-75C407.1,213,402.7,208.6,397.2,208.6z M387.3,284.8c-15.1,3.7-27,15.6-30.7,30.7
				H155.4c-3.7-15.1-15.6-27-30.7-30.7v-57.5c15.1-3.7,27-15.6,30.7-30.7h201.1c3.7,15.1,15.6,27,30.7,30.7L387.3,284.8L387.3,284.8
				z"/>
		</g>
	</g>
	<g>
		<g>
			<path class="st1" d="M218.5,210.5h-14.9c-5.5,0-9.9,4.4-9.9,9.9s4.4,9.9,9.9,9.9h5v61.3c0,5.5,4.4,9.9,9.9,9.9s9.9-4.4,9.9-9.9
				v-71.2C228.4,214.9,224,210.5,218.5,210.5z"/>
		</g>
	</g>
	<g>
		<g>
			<path class="st1" d="M307.8,210.5h-45.5c-5.5,0-9.9,4.4-9.9,9.9v71.2c0,5.5,4.4,9.9,9.9,9.9h45.5c5.5,0,9.9-4.4,9.9-9.9v-71.2
				C317.7,214.9,313.3,210.5,307.8,210.5z M297.9,281.7h-25.7v-51.4h25.7V281.7z"/>
		</g>
	</g>
</g>
</svg>
