<?xml version="1.0" encoding="utf-8"?>
<!-- Generator: Adobe Illustrator 23.0.3, SVG Export Plug-In . SVG Version: 6.00 Build 0)  -->
<svg version="1.1" id="Layer_1" xmlns="http://www.w3.org/2000/svg" xmlns:xlink="http://www.w3.org/1999/xlink" x="0px" y="0px"
	 viewBox="0 0 480 480" style="enable-background:new 0 0 480 480;" xml:space="preserve">
<style type="text/css">
	.st0{fill:#00AD5D;}
</style>
<g>
	<path d="M455.9,362l10.6,12c8.6-7.6,13.5-18.5,13.5-30V88c0-11.5-4.9-22.4-13.5-30l-10.6,12c5.2,4.6,8.1,11.1,8.1,18v256
		C464,350.9,461,357.4,455.9,362z"/>
	<path d="M32,343.2v0.8c0,22.1,17.9,40,40,40h216v-16H72c-13.3,0-24-10.7-24-24h240v-16H40c-13.3,0-24-10.7-24-24V40
		c0-13.3,10.7-24,24-24h368c13.3,0,24,10.7,24,24v264c0,13.3-10.7,24-24,24h-40v16h40c22.1,0,40-17.9,40-40V40c0-22.1-17.9-40-40-40
		H40C17.9,0,0,17.9,0,40v264C0,323,13.4,339.4,32,343.2z"/>
	<path d="M40,32h16v16H40V32z"/>
	<path d="M72,32h16v16H72V32z"/>
	<path d="M104,32h16v16h-16V32z"/>
	<path class="st0" d="M168.6,87.4c-27-27-69.3-31.2-101-9.9s-44.1,61.9-29.5,97.1s52.1,55.3,89.5,47.8C165,215,192,182.2,192,144
		C192.1,122.8,183.6,102.4,168.6,87.4z M66.7,98.7c22.8-22.8,59-25.1,84.5-5.3L108.7,136H48.5C50.2,121.9,56.7,108.8,66.7,98.7z
		 M48.5,152h44.2l-31.2,31.2C54.4,174.2,49.9,163.4,48.5,152z M112,208c-14.2,0-28-4.7-39.2-13.4l39.2-39.2l39.2,39.2
		C140,203.3,126.2,208,112,208z M162.6,183.2L123.3,144l39.2-39.2C180.5,127.8,180.5,160.2,162.6,183.2z"/>
	<path class="st0" d="M208,280c0,4.4,3.6,8,8,8h192v-16H224v-19.1l24-12l28.4,14.3c1.1,0.5,2.3,0.8,3.6,0.8c2.1,0,4.2-0.8,5.7-2.3
		l26.3-26.3l26.3,26.3c1.7,1.7,4.1,2.6,6.4,2.3c2.4-0.2,4.5-1.5,5.9-3.5l25.3-38l25.3,38l13.3-8.9l-32-48c-1.6-2.1-4-3.3-6.7-3.3
		s-5.1,1.2-6.7,3.3l-26.6,39.9l-25.1-25.1c-3.1-3.1-8.2-3.1-11.3,0l-27.9,27.9l-26.9-13.4c-2.2-1.1-4.9-1.1-7.1,0L224,235.1V200h-16
		V280z"/>
	<path class="st0" d="M208,72v80c0,4.4,3.6,8,8,8h192v-16H224v-19.1l24-12l28.4,14.3c3.6,1.8,8,0.6,10.2-2.7L312,86.4l25.3,38
		c1.3,2,3.5,3.3,5.9,3.6c2.4,0.3,4.8-0.6,6.4-2.3L376,99.3l26.3,26.3l11.3-11.3l-32-32c-3.1-3.1-8.2-3.1-11.3,0l-25.1,25.1
		l-26.6-39.9c-1.6-2.1-4-3.3-6.7-3.3s-5.1,1.2-6.7,3.3l-28.1,42.1l-25.7-12.8c-2.2-1.1-4.9-1.1-7.1,0L224,107.1V72H208z"/>
	<path class="st0" d="M40,240h40v16H40V240z"/>
	<path class="st0" d="M96,240h88v16H96V240z"/>
	<path class="st0" d="M40,272h72v16H40V272z"/>
	<path class="st0" d="M128,272h56v16h-56V272z"/>
	<path d="M448,472v-87.1c0.2-11.9-8.3-22.3-20-24.5c-7-1.2-14.1,0.8-19.5,5.4l-0.5,0.4c-9.1-8.2-22.9-8.2-32,0
		c-6.6-5.7-15.7-7.5-24-4.8V328c0.2-11.9-8.3-22.3-20-24.5c-7-1.2-14.1,0.8-19.5,5.3c-5.4,4.6-8.5,11.3-8.5,18.3v90.7l-21.2-12.7
		c-6.5-3.9-14.5-4.2-21.3-0.8l-1.3,0.6c-6.9,3.5-11.6,10.3-12.2,18.1c-0.6,7.7,2.9,15.2,9.2,19.7l50.1,35.8c1.4,1,3,1.5,4.6,1.5h128
		C444.4,480,448,476.4,448,472z M432,464H314.6l-48-34.3c-1.6-1.2-2.6-3-2.6-5c0-2.3,1.3-4.4,3.4-5.5l1.2-0.6
		c1.9-0.9,4.1-0.9,5.9,0.2l33.4,20c2.5,1.5,5.5,1.5,8.1,0.1c2.5-1.4,4.1-4.1,4.1-7V327.1c0-2.4,1-4.6,2.9-6.1
		c1.8-1.5,4.2-2.2,6.5-1.7c4,1,6.8,4.6,6.6,8.7v56c0,4.4,3.6,8,8,8s8-3.6,8-8s3.6-8,8-8s8,3.6,8,8s3.6,8,8,8s8-3.6,8-8s3.6-8,8-8
		s8,3.6,8,8s3.6,8,8,8s8-3.6,8-8c0-2.4,1-4.6,2.9-6.1s4.2-2.2,6.5-1.7c4,1,6.7,4.6,6.6,8.7V464z"/>
</g>
</svg>
