<?xml version="1.0" encoding="utf-8"?>
<!-- Generator: Adobe Illustrator 23.0.3, SVG Export Plug-In . SVG Version: 6.00 Build 0)  -->
<svg version="1.1" id="Layer_1" xmlns="http://www.w3.org/2000/svg" xmlns:xlink="http://www.w3.org/1999/xlink" x="0px" y="0px"
	 viewBox="0 0 480 480" style="enable-background:new 0 0 480 480;" xml:space="preserve">
<style type="text/css">
	.st0{fill:#00AD5D;}
</style>
<g>
	<path d="M16,384c0-14.9,5.9-29.1,16.4-39.6S57.1,328,72,328h17.2l6.9,41.3c0.5,3,2.6,5.4,5.4,6.3s6,0.2,8.1-2l34.3-34.3V480h16
		V339.3l34.3,34.3c2,2,4.8,2.8,7.5,2.1s4.9-2.6,5.8-5.3l8-24l-15.2-5.1l-3.9,11.7L171.3,328H200v-54.3
		c22.2-14.4,36.8-38.1,39.5-64.5l1-9.2H280c4.4,0,8-3.6,8-8v-64c0-4.4-3.6-8-8-8h-8C272,53.7,218.3,0,152,0S32,53.7,32,120h-8
		c-4.4,0-8,3.6-8,8v64c0,4.4,3.6,8,8,8h8v24c0,1.5,0.4,2.9,1.1,4.1l24,40l13.7-8.2L48,221.8V200h15.5l1,9.2
		c2.7,26.4,17.3,50.1,39.5,64.5V312H72c-19.1,0-37.4,7.6-50.9,21.1C7.6,346.6,0,364.9,0,384v96h16V384z M109.3,351.4l-3.9-23.4h27.2
		L109.3,351.4z M184,312h-64v-30c20.6,8,43.4,8,64,0V312z M272,184h-29.9l5.1-48H272V184z M32,184v-48h24.8l5.1,48H32z M56.4,120H48
		C48,62.6,94.6,16,152,16s104,46.6,104,104h-8.4c-4.1-49.8-45.7-88.1-95.6-88.1S60.5,70.2,56.4,120L56.4,120z M152,48
		c41.6,0.1,76.2,32,79.7,73.5l-25.5-30.6c-2.1-2.5-5.6-3.5-8.7-2.5c-29.7,10-61.8,10.6-91.9,2l-7.4-2.1c-3.3-1-6.9,0.4-8.8,3.3
		L73,116.1C78.9,77,112.5,48.1,152,48z M80.4,207.6l-6.7-63.7l25.7-38.6l1.7,0.5c31.4,9,64.8,8.8,96.1-0.6l32.9,39.5l-6.6,62.8
		c-3.9,36.6-34.8,64.4-71.6,64.4S84.3,244.2,80.4,207.6L80.4,207.6z"/>
	<path d="M288,448h16v32h-16V448z"/>
	<path d="M120,160c0,8.8-7.2,16-16,16s-16-7.2-16-16s7.2-16,16-16S120,151.2,120,160z"/>
	<path d="M216,160c0,8.8-7.2,16-16,16s-16-7.2-16-16s7.2-16,16-16S216,151.2,216,160z"/>
	<path d="M160,200v-16h-11.1l10.3-20.4l-14.3-7.1l-16,32c-1.2,2.5-1.1,5.4,0.3,7.8s4,3.8,6.8,3.8H160z"/>
	<path d="M178.3,202.3c-8.8,8.7-20.6,13.6-33,13.7H136v16h9.4c16.6-0.1,32.5-6.6,44.3-18.3L178.3,202.3z"/>
	<path d="M56,408h16v72H56V408z"/>
	<path d="M232,416h16v64h-16V416z"/>
	<path d="M472,288h-21.1c-1.7-5.3-3.8-10.4-6.3-15.3l14.9-14.9c3.1-3.1,3.1-8.2,0-11.3l-33.9-33.9c-3.1-3.1-8.2-3.1-11.3,0
		l-14.9,14.9c-4.9-2.5-10-4.6-15.3-6.3V200c0-4.4-3.6-8-8-8h-48c-4.4,0-8,3.6-8,8v21.1c-5.3,1.7-10.4,3.8-15.3,6.3l-14.9-14.9
		c-3.1-3.1-8.2-3.1-11.3,0l-33.9,33.9c-3.1,3.1-3.1,8.2,0,11.3l15,14.9c-2.5,4.9-4.6,10-6.3,15.3H232c-4.4,0-8,3.6-8,8v48
		c0,4.4,3.6,8,8,8h21.1c1.7,5.3,3.8,10.4,6.3,15.3l-14.9,14.9c-3.1,3.1-3.1,8.2,0,11.3l33.9,33.9c3.1,3.1,8.2,3.1,11.3,0l14.9-14.9
		c4.9,2.5,10,4.6,15.3,6.3V440c0,4.4,3.6,8,8,8h48c4.4,0,8-3.6,8-8v-21.1c5.3-1.7,10.4-3.8,15.3-6.3l14.9,14.9
		c3.1,3.1,8.2,3.1,11.3,0l33.9-33.9c3.1-3.1,3.1-8.2,0-11.3l-15-14.9c2.5-4.9,4.6-10,6.3-15.3H472c4.4,0,8-3.6,8-8v-48
		C480,291.6,476.4,288,472,288z M464,336h-19.2c-3.6,0-6.8,2.5-7.7,6c-2,7.9-5.2,15.6-9.4,22.6c-1.9,3.1-1.3,7.1,1.2,9.7l13.5,13.5
		l-22.6,22.6L406.3,397c-2.6-2.6-6.6-3.1-9.7-1.2c-7.1,4.2-14.7,7.3-22.6,9.4c-3.5,0.9-6,4.1-6,7.7V432h-32v-19.2
		c0-3.6-2.5-6.8-6-7.7c-7.9-2-15.6-5.2-22.6-9.4c-3.1-1.9-7.1-1.3-9.7,1.2l-13.5,13.5l-22.6-22.6l13.5-13.5c2.6-2.6,3.1-6.6,1.2-9.7
		c-4.2-7.1-7.3-14.7-9.4-22.6c-0.9-3.5-4.1-6-7.7-6H240v-32h19.2c3.6,0,6.8-2.5,7.7-6c2-7.9,5.2-15.6,9.4-22.6
		c1.9-3.1,1.3-7.1-1.2-9.7l-13.5-13.5l22.6-22.6l13.5,13.5c2.6,2.6,6.6,3.1,9.7,1.2c7.1-4.2,14.7-7.3,22.6-9.4c3.5-0.9,6-4.1,6-7.7
		V208h32v19.2c0,3.6,2.5,6.8,6,7.7c7.9,2,15.6,5.2,22.6,9.4c3.1,1.9,7.1,1.3,9.7-1.2l13.5-13.5l22.6,22.6L429,265.7
		c-2.6,2.6-3.1,6.6-1.2,9.7c4.2,7.1,7.3,14.7,9.4,22.6c0.9,3.5,4.1,6,7.7,6H464V336z"/>
	<path class="st0" d="M352,248c-39.8,0-72,32.2-72,72s32.2,72,72,72s72-32.2,72-72C424,280.3,391.7,248,352,248z M352,376
		c-30.9,0-56-25.1-56-56s25.1-56,56-56s56,25.1,56,56C408,350.9,382.9,376,352,376z"/>
	<path class="st0" d="M352,280c-22.1,0-40,17.9-40,40s17.9,40,40,40s40-17.9,40-40C392,297.9,374.1,280,352,280z M352,344
		c-13.3,0-24-10.7-24-24s10.7-24,24-24s24,10.7,24,24S365.3,344,352,344z"/>
</g>
</svg>
