<?xml version="1.0" encoding="utf-8"?>
<!-- Generator: Adobe Illustrator 23.0.3, SVG Export Plug-In . SVG Version: 6.00 Build 0)  -->
<svg version="1.1" id="Layer_1" xmlns="http://www.w3.org/2000/svg" xmlns:xlink="http://www.w3.org/1999/xlink" x="0px" y="0px"
	 viewBox="0 0 480 480" style="enable-background:new 0 0 480 480;" xml:space="preserve">
<style type="text/css">
	.st0{fill:#00AD5D;}
</style>
<g>
	<path d="M130,424h-18v16h72v-16h-37.2l19.2-64h18v-16H32c-8.8,0-16-7.2-16-16v-16h168v-16H16V72c0-8.8,7.2-16,16-16h336
		c8.8,0,16,7.2,16,16v64h16V72c0-17.7-14.3-32-32-32H32C14.3,40,0,54.3,0,72v256c0,17.7,14.3,32,32,32h117.2L130,424z"/>
	<path class="st0" d="M352,120v16h16v-24c0-4.4-3.6-8-8-8H40c-4.4,0-8,3.6-8,8v96c0,4.4,3.6,8,8,8h144v-16H48v-80H352z"/>
	<path class="st0" d="M136,280v-40c0-4.4-3.6-8-8-8H40c-4.4,0-8,3.6-8,8v40h16v-32h72v32H136z"/>
	<path class="st0" d="M152,240v40h16v-32h16v-16h-24C155.6,232,152,235.6,152,240z"/>
	<path d="M32,72h16v16H32V72z"/>
	<path d="M64,72h16v16H64V72z"/>
	<path d="M96,72h16v16H96V72z"/>
	<path d="M424,216v-40c0-13.3-10.7-24-24-24H224c-13.3,0-24,10.7-24,24v240c0,13.3,10.7,24,24,24h112v-16H224c-4.4,0-8-3.6-8-8v-8
		h120v-16H216V176c0-4.4,3.6-8,8-8h176c4.4,0,8,3.6,8,8v40H424z"/>
	<path d="M240,184h24v16h-24V184z"/>
	<path d="M280,184h24v16h-24V184z"/>
	<path d="M320,184h24v16h-24V184z"/>
	<path d="M360,184h24v16h-24V184z"/>
	<path class="st0" d="M248,232h104v-16H240c-4.4,0-8,3.6-8,8v56c0,4.4,3.6,8,8,8h96v-16h-88V232z"/>
	<path class="st0" d="M336,320v-16h-96c-4.4,0-8,3.6-8,8v56c0,4.4,3.6,8,8,8h96v-16h-88v-40H336z"/>
	<path d="M456,232h-80c-13.3,0-24,10.7-24,24v160c0,13.3,10.7,24,24,24h80c13.3,0,24-10.7,24-24V256C480,242.7,469.3,232,456,232z
		 M464,416c0,4.4-3.6,8-8,8h-80c-4.4,0-8-3.6-8-8v-8h96V416z M464,392h-96V256c0-4.4,3.6-8,8-8h80c4.4,0,8,3.6,8,8V392z"/>
	<path class="st0" d="M440,264h-48c-4.4,0-8,3.6-8,8v32c0,4.4,3.6,8,8,8h48c4.4,0,8-3.6,8-8v-32C448,267.6,444.4,264,440,264z
		 M432,296h-32v-16h32V296z"/>
	<path class="st0" d="M440,328h-48c-4.4,0-8,3.6-8,8v32c0,4.4,3.6,8,8,8h48c4.4,0,8-3.6,8-8v-32C448,331.6,444.4,328,440,328z
		 M432,360h-32v-16h32V360z"/>
</g>
</svg>
