<?xml version="1.0" encoding="utf-8"?>
<!-- Generator: Adobe Illustrator 23.0.3, SVG Export Plug-In . SVG Version: 6.00 Build 0)  -->
<svg version="1.1" id="Layer_1" xmlns="http://www.w3.org/2000/svg" xmlns:xlink="http://www.w3.org/1999/xlink" x="0px" y="0px"
	 viewBox="0 0 511 511" style="enable-background:new 0 0 511 511;" xml:space="preserve">
<style type="text/css">
	.st0{fill:#FFFFFF;}
	.st1{fill:#00AD5D;}
</style>
<g id="surface1">
	<path class="st0" d="M449.8,209.9c-7.6-18.1-14.8-35.1-18-48.8c-6.2-26.4,11-47,21.7-52.1c8.6-4.1,14.6-11.9,16.5-21.2
		c1.9-9.3-0.7-18.7-7-25.8l-46.2-51.9c-10.1-11.3-27.1-13.4-39.6-4.8C337.1,32.9,292.1,15.9,272.4,6l-2.2-1.2
		c-4.2-2.2-9-3.4-13.7-3.4c0,0-0.1,0-0.1,0c-4.8,0-9.5,1.2-13.8,3.4l-2.1,1.1c-53.8,27.5-91.2,8.8-104.9-0.6
		c-12.5-8.6-29.5-6.5-39.6,4.8L49.9,62c-6.3,7.1-8.9,16.5-7,25.8c1.9,9.3,7.9,17.1,16.5,21.2c10.6,5.1,27.9,25.6,21.7,52.1
		c-3.2,13.7-10.4,30.7-18,48.8c-20.4,48.7-45.9,109.3-20.4,162.9c18.1,38,58,65.5,122.1,84.3c2.7,0.8,5.3,1.5,7.9,2.3
		c19.8,5.7,38.6,11.2,52,18.4c0.5,0.3,1,0.5,1.5,0.8l0.3,0.2c0.5,0.3,0.9,0.5,1.4,0.8l0.3,0.2c0.9,0.5,1.8,1.1,2.7,1.6l0.3,0.2
		c0.4,0.2,0.7,0.5,1.1,0.7l0.6,0.4c0.3,0.2,0.6,0.4,1,0.7c0.2,0.1,0.4,0.3,0.6,0.4l0.1,0.1c0.4,0.3,0.8,0.6,1.1,0.9
		c0.4,0.3,0.7,0.5,1,0.8l0.6,0.5c0.3,0.2,0.5,0.4,0.8,0.7c0.2,0.2,0.4,0.4,0.6,0.5c0.3,0.3,0.6,0.5,0.8,0.8l0.5,0.4
		c0.4,0.4,0.8,0.8,1.2,1.2l0.3,0.3c0.3,0.3,0.6,0.7,0.9,1l0.4,0.4c0.3,0.3,0.5,0.6,0.8,0.9l0.3,0.4c0.6,0.8,1.2,1.4,1.6,1.8
		l11.6,16.4l11.7-16.5l0,0c0.4-0.4,0.9-1,1.5-1.7l0.3-0.4c0.3-0.3,0.5-0.6,0.8-0.9l0.4-0.4c0.3-0.3,0.6-0.7,0.9-1l0.3-0.3
		c0.4-0.4,0.8-0.8,1.2-1.2l0.5-0.4c0.3-0.3,0.5-0.5,0.8-0.8c0.2-0.2,0.4-0.4,0.6-0.5c0.3-0.2,0.5-0.5,0.8-0.7l0.6-0.5
		c0.3-0.3,0.7-0.6,1-0.8c0.4-0.3,0.8-0.6,1.2-0.9l0.1-0.1c0.2-0.1,0.4-0.3,0.6-0.4c0.3-0.2,0.6-0.5,1-0.7l0.6-0.4
		c0.4-0.2,0.7-0.5,1-0.7l0.3-0.2c0.9-0.6,1.8-1.1,2.6-1.6l0.3-0.2c0.4-0.3,0.9-0.5,1.4-0.8l0.3-0.2c0.5-0.3,1-0.6,1.5-0.8
		c14.1-7.6,33.5-13.2,54.1-19.2l4.9-1.4c64.1-18.7,104-46.3,122.1-84.3C495.7,319.2,470.3,258.6,449.8,209.9z M443.7,360.2
		c-14.1,29.6-49,52.7-103.9,68.7l-4.9,1.4c-22.1,6.4-43,12.5-59.8,21.6c-0.7,0.4-1.3,0.7-2,1.1l-0.4,0.2c-0.6,0.3-1.2,0.7-1.8,1
		l-0.2,0.1c-1.3,0.7-2.5,1.5-3.8,2.4l-0.4,0.3c-0.5,0.3-1,0.7-1.5,1c-0.3,0.2-0.6,0.4-0.9,0.6c-0.5,0.3-0.9,0.7-1.4,1
		c-0.3,0.2-0.6,0.4-0.9,0.7l-0.1,0.1c-0.6,0.4-1.1,0.9-1.7,1.3c-0.5,0.4-1,0.8-1.6,1.3c-0.3,0.2-0.5,0.4-0.8,0.6l-0.2,0.2
		c-0.3,0.2-0.5,0.4-0.8,0.7c-0.3-0.2-0.5-0.5-0.8-0.7l-0.2-0.2c-0.3-0.2-0.5-0.4-0.8-0.7c-0.5-0.4-1-0.8-1.6-1.3
		c-0.6-0.4-1.1-0.9-1.7-1.3l-0.1-0.1c-0.3-0.2-0.6-0.4-0.9-0.7c-0.5-0.3-0.9-0.7-1.4-1c-0.3-0.2-0.6-0.4-0.8-0.6
		c-0.5-0.3-1-0.7-1.5-1l-0.4-0.3c-1.3-0.8-2.5-1.6-3.8-2.3l0,0c0,0,0,0,0,0l-0.2-0.1c-0.6-0.3-1.2-0.7-1.8-1l-0.5-0.3
		c-0.6-0.4-1.3-0.7-1.9-1.1c-16.1-8.7-36.3-14.5-57.7-20.7c-2.6-0.8-5.2-1.5-7.9-2.3c-54.8-16-89.8-39.2-103.9-68.7
		c-19.9-41.8,1.8-93.4,20.9-138.9c8.1-19.2,15.7-37.4,19.5-53.4c9.8-41.6-16-74.9-37.5-85.2c-0.1-0.1-0.4-0.2-0.4-0.5
		c-0.1-0.3,0.1-0.5,0.2-0.6l46.2-51.9c0.3-0.3,0.7-0.4,1.1-0.1c24.1,16.6,51.9,23,82.5,19c24.6-3.2,44.9-12.5,54.9-17.8l0.1,0l0.1,0
		c9.9,5.3,30.3,14.6,54.9,17.8c30.7,4,58.4-2.5,82.5-19c0.3-0.2,0.8-0.2,1.1,0.1l46.2,51.9c0.1,0.1,0.2,0.3,0.2,0.6
		c-0.1,0.4-0.3,0.5-0.4,0.5c-21.5,10.3-47.3,43.6-37.5,85.2c3.8,16,11.4,34.2,19.5,53.4C441.9,266.8,463.6,318.4,443.7,360.2z"/>
	<path class="st1" d="M256.4,112.6c-75.8,0-137.6,61.7-137.6,137.6s61.7,137.6,137.6,137.6c75.9,0,137.6-61.7,137.6-137.6
		C394,174.3,332.3,112.6,256.4,112.6z M256.4,358.4c-59.7,0-108.2-48.6-108.2-108.2s48.6-108.2,108.2-108.2s108.2,48.6,108.2,108.2
		S316.1,358.4,256.4,358.4z"/>
	<path class="st1" d="M299.5,210.2h-13.7l-4.2-13c-3.5-10.9-13.6-18.3-25.1-18.3c-11.5,0-21.6,7.3-25.1,18.3l-4.2,13h-13.7
		c-11.5,0-21.6,7.3-25.1,18.3c-3.6,10.9,0.3,22.8,9.6,29.5l11.1,8.1l-4.2,13c-3.5,10.9,0.3,22.8,9.6,29.5c4.6,3.4,10.1,5.1,15.5,5.1
		s10.9-1.7,15.5-5.1l11.1-8.1l11.1,8.1c9.3,6.7,21.8,6.7,31.1,0c9.3-6.7,13.1-18.6,9.6-29.5l-4.2-13L315,258
		c9.3-6.7,13.1-18.6,9.6-29.5S311,210.2,299.5,210.2z M285,243.6c-9.3,6.7-13.1,18.6-9.6,29.5l2.1,6.6l-5.6-4.1
		c-9.3-6.7-21.8-6.7-31.1,0l-5.6,4.1l2.1-6.6c3.5-10.9-0.3-22.8-9.6-29.5l-5.6-4.1h6.9c11.5,0,21.6-7.3,25.1-18.3l2.1-6.6l2.1,6.6
		c3.5,10.9,13.6,18.3,25.1,18.3h6.9L285,243.6z"/>
</g>
</svg>
