<?xml version="1.0" encoding="utf-8"?>
<!-- Generator: Adobe Illustrator 23.0.3, SVG Export Plug-In . SVG Version: 6.00 Build 0)  -->
<svg version="1.1" id="Layer_1" xmlns="http://www.w3.org/2000/svg" xmlns:xlink="http://www.w3.org/1999/xlink" x="0px" y="0px"
	 viewBox="0 0 511 511" style="enable-background:new 0 0 511 511;" xml:space="preserve">
<style type="text/css">
	.st0{fill:#FFFFFF;}
	.st1{fill:#00AD5D;}
</style>
<g id="surface1">
	<path class="st0" d="M494.4,214.5L295.5,15.6C284.8,4.9,270.6-1,255.5-1c-15.1,0-29.3,5.9-40,16.6L16.6,214.5
		C5.9,225.2,0,239.4,0,254.5s5.9,29.3,16.6,40l198.9,198.9c10.7,10.7,24.9,16.6,40,16.6c15.1,0,29.3-5.9,40-16.6l198.9-198.9
		c10.7-10.7,16.6-24.9,16.6-40S505.1,225.2,494.4,214.5z M473.2,273.3L274.3,472.2c-5,5-11.7,7.8-18.8,7.8c-7.1,0-13.8-2.8-18.8-7.8
		L37.8,273.3c-5-5-7.8-11.7-7.8-18.8s2.8-13.8,7.8-18.8L236.7,36.8c5-5,11.7-7.8,18.8-7.8c7.1,0,13.8,2.8,18.8,7.8l198.9,198.9
		c5,5,7.8,11.7,7.8,18.8C481,261.6,478.3,268.3,473.2,273.3z"/>
	<path class="st1" d="M256,138.4c-8.3,0-15,6.7-15,15v155.4c0,8.3,6.7,15,15,15c8.3,0,15-6.7,15-15V153.4
		C270.9,145.1,264.2,138.4,256,138.4z"/>
	<path class="st1" d="M270.6,352.8c-0.1-0.5-0.2-1-0.4-1.4c-0.1-0.5-0.3-0.9-0.5-1.4c-0.2-0.4-0.4-0.9-0.6-1.3
		c-0.2-0.4-0.5-0.9-0.8-1.3c-0.3-0.4-0.6-0.8-0.9-1.2c-0.3-0.4-0.7-0.7-1-1.1c-0.3-0.3-0.7-0.7-1.1-1c-0.4-0.3-0.8-0.6-1.2-0.9
		c-0.4-0.3-0.8-0.5-1.3-0.7c-0.4-0.2-0.9-0.4-1.3-0.6c-0.4-0.2-0.9-0.4-1.4-0.5c-0.5-0.1-0.9-0.3-1.4-0.4c-0.5-0.1-1-0.2-1.5-0.2
		c-1-0.1-2-0.1-2.9,0c-0.5,0-1,0.1-1.5,0.2c-0.5,0.1-1,0.2-1.4,0.4c-0.5,0.1-0.9,0.3-1.4,0.5c-0.5,0.2-0.9,0.4-1.3,0.6
		c-0.4,0.2-0.9,0.5-1.3,0.7c-0.4,0.3-0.8,0.6-1.2,0.9c-0.4,0.3-0.7,0.7-1.1,1c-0.3,0.4-0.7,0.7-1,1.1c-0.3,0.4-0.6,0.8-0.9,1.2
		c-0.3,0.4-0.5,0.8-0.7,1.3c-0.2,0.4-0.4,0.9-0.6,1.3c-0.2,0.5-0.4,0.9-0.5,1.4c-0.1,0.5-0.3,0.9-0.4,1.4c-0.1,0.5-0.2,1-0.2,1.5
		c-0.1,0.5-0.1,1-0.1,1.5c0,0.5,0,1,0.1,1.5c0.1,0.5,0.1,1,0.2,1.4c0.1,0.5,0.2,1,0.4,1.4c0.1,0.5,0.3,0.9,0.5,1.4
		c0.2,0.4,0.4,0.9,0.6,1.3c0.2,0.4,0.5,0.8,0.7,1.3c0.3,0.4,0.6,0.8,0.9,1.2c0.3,0.4,0.7,0.7,1,1.1c0.3,0.3,0.7,0.7,1.1,1
		c0.4,0.3,0.8,0.6,1.2,0.9c0.4,0.3,0.8,0.5,1.3,0.8c0.4,0.2,0.9,0.4,1.3,0.6c0.4,0.2,0.9,0.4,1.4,0.5c0.5,0.1,0.9,0.3,1.4,0.4
		c0.5,0.1,1,0.2,1.5,0.2c0.5,0.1,1,0.1,1.5,0.1c0.5,0,1,0,1.5-0.1c0.5,0,1-0.1,1.5-0.2c0.5-0.1,1-0.2,1.4-0.4
		c0.5-0.1,0.9-0.3,1.4-0.5c0.5-0.2,0.9-0.4,1.3-0.6c0.4-0.2,0.8-0.5,1.3-0.8c0.4-0.3,0.8-0.6,1.2-0.9c0.4-0.3,0.8-0.6,1.1-1
		c0.3-0.4,0.7-0.7,1-1.1c0.3-0.4,0.6-0.8,0.9-1.2c0.3-0.4,0.5-0.8,0.8-1.3c0.2-0.4,0.4-0.9,0.6-1.3c0.2-0.4,0.4-0.9,0.5-1.4
		c0.1-0.5,0.3-1,0.4-1.4c0.1-0.5,0.2-1,0.2-1.4c0.1-0.5,0.1-1,0.1-1.5c0-0.5,0-1-0.1-1.5C270.8,353.8,270.7,353.3,270.6,352.8z"/>
</g>
</svg>
